<?xml version="1.0" encoding="UTF-8" standalone="no"?>
<!-- Created with Inkscape (http://www.inkscape.org/) -->

<svg
   width="384"
   height="128"
   viewBox="0 0 101.6 33.866668"
   version="1.1"
   id="svg1"
   xml:space="preserve"
   inkscape:version="1.4.2 (f4327f4, 2025-05-13)"
   sodipodi:docname="react-weather-banner.svg"
   inkscape:export-filename="react-weather-banner.png"
   inkscape:export-xdpi="300"
   inkscape:export-ydpi="300"
   xmlns:inkscape="http://www.inkscape.org/namespaces/inkscape"
   xmlns:sodipodi="http://sodipodi.sourceforge.net/DTD/sodipodi-0.dtd"
   xmlns="http://www.w3.org/2000/svg"
   xmlns:svg="http://www.w3.org/2000/svg"><sodipodi:namedview
     id="namedview1"
     pagecolor="#ffffff"
     bordercolor="#000000"
     borderopacity="0.25"
     inkscape:showpageshadow="2"
     inkscape:pageopacity="0.0"
     inkscape:pagecheckerboard="0"
     inkscape:deskcolor="#d1d1d1"
     inkscape:document-units="mm"
     inkscape:zoom="2.0334082"
     inkscape:cx="137.94574"
     inkscape:cy="64.669751"
     inkscape:window-width="2544"
     inkscape:window-height="993"
     inkscape:window-x="2236"
     inkscape:window-y="190"
     inkscape:window-maximized="0"
     inkscape:current-layer="layer1" /><defs
     id="defs1" /><g
     inkscape:label="Warstwa 1"
     inkscape:groupmode="layer"
     id="layer1"><g
       inkscape:label="Warstwa 1"
       id="layer1-3"
       transform="matrix(0.24873326,0,0,0.24873326,1.6894967,0.55950846)"><path
         id="path1-8"
         style="fill:#6229ee;fill-opacity:1;stroke-width:3.93771"
         d="m 89.598149,12.604399 c -0.944992,0 -1.732497,0.354285 -2.401921,1.02371 -0.669423,0.669409 -0.984436,1.457033 -0.984436,2.362646 v 8.033102 c 0,0.905731 0.393726,1.693404 1.02371,2.284098 0.63003,0.590546 1.457035,0.905371 2.362647,0.905371 0.905612,0 1.693222,-0.275386 2.362646,-0.905371 0.669425,-0.630028 0.984436,-1.378485 0.984436,-2.284098 v -8.072376 c 0,-0.905612 -0.315011,-1.693222 -0.984436,-2.362646 C 91.291387,12.91941 90.5432,12.604399 89.598149,12.604399 Z m -27.170435,11.22257 c -0.905672,0 -1.732668,0.315013 -2.52026,0.984436 -0.590545,0.708789 -0.905371,1.496309 -0.905371,2.401921 0,0.944991 0.314662,1.771935 0.944646,2.401921 l 5.749519,5.63118 c 0.590649,0.629984 1.377804,0.945162 2.322856,0.945162 0.94505,0 1.732662,-0.315178 2.362646,-0.945162 0.629986,-0.63003 0.945162,-1.417594 0.945162,-2.362646 0,-0.945111 -0.315176,-1.732677 -0.945162,-2.323372 l -5.630664,-5.788278 c -0.669408,-0.629984 -1.45705,-0.945162 -2.323372,-0.945162 z m 54.340356,0.03927 c -0.86624,0 -1.65396,0.315177 -2.32338,0.945162 l -5.59139,5.788278 c -0.59055,0.55127 -0.90537,1.338881 -0.90537,2.323372 0,0.945051 0.31467,1.732662 0.90537,2.362646 0.59067,0.629985 1.29943,0.945162 2.20504,0.945162 0.86628,0 1.65378,-0.315177 2.36264,-0.945162 l 5.74952,-5.630664 c 0.63,-0.630028 0.94465,-1.457221 0.94465,-2.441711 0,-0.905613 -0.315,-1.693222 -0.98444,-2.362646 -0.63002,-0.669424 -1.41759,-0.984437 -2.36264,-0.984437 z M 89.558875,33.907491 c -3.662066,0 -7.04858,0.905697 -10.238135,2.756421 -3.189541,1.850722 -5.670265,4.370827 -7.520988,7.520988 -0.616664,1.04961 -1.128584,2.129727 -1.536857,3.239079 2.083048,0.816737 4.069787,1.906574 5.959843,3.266984 0.61234,-2.22396 1.80814,-4.218217 3.609598,-5.99395 2.67765,-2.67762 5.946228,-4.016809 9.765813,-4.016809 3.858964,0 7.127345,1.339159 9.84436,4.016809 2.717101,2.71703 4.094841,5.945816 4.094841,9.726022 0,3.858964 -1.3778,7.127345 -4.094841,9.84436 -1.41157,1.411608 -2.971844,2.461652 -4.686536,3.145028 1.752725,0.49545 3.436527,1.202503 5.051372,2.11615 0.715865,0.405027 1.402815,0.84318 2.059825,1.313614 2.18898,-1.649486 3.98655,-3.677787 5.41104,-6.102469 1.85079,-3.150161 2.75642,-6.575963 2.75642,-10.277409 0,-2.756409 -0.55114,-5.433891 -1.61437,-7.954037 -1.06317,-2.520132 -2.52007,-4.68583 -4.3708,-6.536552 -1.81136,-1.850723 -4.01641,-3.308073 -6.536549,-4.410583 C 94.9534,34.458553 92.31527,33.907491 89.558875,33.907491 Z M 120.0366,51.036678 c -0.86635,0 -1.61431,0.315177 -2.24431,0.945162 -0.62997,0.708789 -0.94516,1.496144 -0.94516,2.441195 0,0.945052 0.31467,1.693222 0.90537,2.362646 0.59065,0.669425 1.37849,0.984436 2.2841,0.984436 h 7.95404 c 0.90561,0 1.69322,-0.315011 2.36264,-0.984436 0.66942,-0.669409 1.02371,-1.457034 1.02371,-2.362646 0,-0.905612 -0.35429,-1.693223 -1.02371,-2.362647 -0.66941,-0.669424 -1.45703,-1.02371 -2.36264,-1.02371 z m -59.698164,2.309937 c -2.293813,0 -4.462269,0.357683 -6.491594,1.068151 h 8.46305 c -6.77e-4,-0.350624 -0.04466,-0.679354 -0.130225,-0.98857 -0.603762,-0.05276 -1.217561,-0.07958 -1.841231,-0.07958 z" /><path
         d="m 12.92404,92.097312 c 0,-5.271688 1.650267,-9.947444 4.9508,-14.073112 3.300535,-4.125665 7.472026,-6.784423 12.560359,-7.930446 1.421049,-6.280178 4.675755,-11.414335 9.672399,-15.448333 4.996646,-4.03398 10.772577,-6.050976 17.236117,-6.050976 6.326018,0 11.964436,1.971152 16.915234,5.867619 4.950807,3.896467 8.159649,8.938936 9.626566,15.081602 h 1.512701 c 4.125667,0 7.930438,1.008525 11.414332,2.979645 3.483902,1.971155 6.280202,4.7216 8.297172,8.205491 2.01701,3.483907 3.07134,7.242842 3.07134,11.36851 0,4.033979 -0.96261,7.792935 -2.88796,11.230978 -1.92531,3.43807 -4.58409,6.18852 -7.93044,8.25135 -3.34638,2.06284 -7.059489,3.16301 -11.047625,3.30053 H 34.927563 c -6.142666,-0.27513 -11.322668,-2.61292 -15.585865,-7.01363 -4.263181,-4.35488 -6.417693,-9.626563 -6.417693,-15.769228 z m 7.838759,0 c 0,3.988155 1.375135,7.426205 4.125666,10.360008 2.750445,2.93381 6.096821,4.49239 10.039131,4.7216 H 86.22338 c 3.942309,-0.18331 7.288689,-1.78779 10.039136,-4.7216 2.796266,-2.933803 4.171484,-6.4177 4.171484,-10.360008 0,-4.03398 -1.512698,-7.472044 -4.492379,-10.405847 -2.979641,-2.9338 -6.509392,-4.40071 -10.635059,-4.40071 h -7.334519 c -0.504172,0 -0.779305,-0.274959 -0.779305,-0.825047 L 76.871867,73.85269 c -0.504179,-4.9508 -2.65876,-9.122294 -6.417714,-12.46867 -3.758929,-3.346378 -8.113796,-5.042487 -13.110438,-5.042487 -4.99665,0 -9.397362,1.696178 -13.064604,5.042487 -3.713112,3.346376 -5.82178,7.51787 -6.2802,12.46867 l -0.366783,2.61293 c 0,0.55009 -0.320871,0.825047 -0.916872,0.825047 h -2.429539 c -3.850622,0.458437 -7.05947,2.108669 -9.626557,4.904958 -2.567088,2.796288 -3.896466,6.096821 -3.896466,9.901601 z"
         id="path1"
         style="fill:#6229ee;fill-opacity:1;stroke-width:4.58407" /><g
         id="g3"
         transform="matrix(0.01187143,0,0,0.01187143,37.851772,64.570729)"><path
           class="st0"
           d="M 0,0 H 3618.6 V 3618.6 H 0 Z"
           id="path1-3"
           style="fill:none" /><path
           class="st2"
           d="m 1806.5,1191.9 c 406.2,0 783.6,58.3 1068.1,156.2 342.8,118 553.6,296.9 553.6,458.9 0,168.8 -223.4,358.9 -591.5,480.8 -278.3,92.2 -644.6,140.4 -1030.2,140.4 -395.4,0 -769.7,-45.2 -1051.2,-141.4 C 399.2,2165.1 184.7,1972.6 184.7,1807 c 0,-160.7 201.3,-338.2 539.3,-456 285.6,-99.5 672.3,-159.1 1082.5,-159.1 z"
           id="path2-2"
           style="fill:none;stroke:#6229ee;stroke-opacity:1" /><path
           class="st2"
           d="m 1271,1501.3 c 202.9,-351.9 442,-649.7 669,-847.2 273.5,-238 533.8,-331.2 674.1,-250.3 146.2,84.3 199.3,372.8 121,752.7 -59.2,287.2 -200.4,628.5 -393.1,962.6 -197.5,342.5 -423.7,644.2 -647.6,840 -283.3,247.7 -557.3,337.3 -700.7,254.6 -139.2,-80.3 -192.4,-343.3 -125.7,-695 56.4,-297.4 198,-662.1 403,-1017.4 z"
           id="path3"
           style="stroke:#6229ee;stroke-opacity:1" /><path
           class="st2"
           d="M 1271.5,2119.8 C 1068,1768.2 929.4,1412.4 871.6,1117.1 802,761.3 851.2,489.2 991.4,408.1 c 146.1,-84.6 422.5,13.5 712.5,271 219.3,194.7 444.4,487.5 637.6,821.3 198.1,342.2 346.6,688.8 404.3,980.5 73.1,369.2 13.9,651.3 -129.4,734.2 -139.1,80.5 -393.5,-4.7 -664.9,-238.2 -229.2,-197.3 -474.5,-502.1 -680,-857.1 z"
           id="path4"
           style="stroke:#6229ee;stroke-opacity:1" /><circle
           class="st1"
           cx="1806.5"
           cy="1807.1"
           r="302.60001"
           id="circle1"
           transform="translate(6.9096742e-5,8.7010709e-5)"
           style="fill:#6229ee;fill-opacity:1" /></g></g><text
       xml:space="preserve"
       style="font-style:normal;font-variant:normal;font-weight:normal;font-stretch:normal;font-size:7.38678px;font-family:'Cascadia Code';-inkscape-font-specification:'Cascadia Code, @wght=600';font-variant-ligatures:normal;font-variant-caps:normal;font-variant-numeric:normal;font-variant-east-asian:normal;font-variation-settings:'wght' 600;text-align:start;writing-mode:lr-tb;direction:ltr;text-anchor:start;fill:#333333;stroke:none;stroke-width:0.615565"
       x="41.597752"
       y="19.756535"
       id="text1"><tspan
         sodipodi:role="line"
         id="tspan1"
         style="font-style:normal;font-variant:normal;font-weight:normal;font-stretch:normal;font-size:7.38678px;font-family:'Cascadia Code';-inkscape-font-specification:'Cascadia Code, @wght=600';font-variant-ligatures:normal;font-variant-caps:normal;font-variant-numeric:normal;font-variant-east-asian:normal;font-variation-settings:'wght' 600;fill:#333333;stroke:none;stroke-width:0.615565"
         x="41.597752"
         y="19.756535">REACT-WEATHER</tspan></text></g><style
     id="style1">.st0{fill:#222}.st1{fill:#00d8ff}.st2{fill:none;stroke:#00d8ff;stroke-width:144.7456;stroke-miterlimit:10}</style><style
     id="style1-1">.st0{fill:#222}.st1{fill:#00d8ff}.st2{fill:none;stroke:#00d8ff;stroke-width:144.7456;stroke-miterlimit:10}</style></svg>
