<?xml version="1.0" encoding="UTF-8" standalone="no"?>
<!-- Created with Inkscape (http://www.inkscape.org/) -->

<svg
   width="512"
   height="512"
   viewBox="0 0 135.46666 135.46667"
   version="1.1"
   id="svg1"
   xml:space="preserve"
   sodipodi:docname="react-weather-logo.svg"
   inkscape:version="1.4.2 (f4327f4, 2025-05-13)"
   xmlns:inkscape="http://www.inkscape.org/namespaces/inkscape"
   xmlns:sodipodi="http://sodipodi.sourceforge.net/DTD/sodipodi-0.dtd"
   xmlns="http://www.w3.org/2000/svg"
   xmlns:svg="http://www.w3.org/2000/svg"><sodipodi:namedview
     id="namedview1"
     pagecolor="#ffffff"
     bordercolor="#000000"
     borderopacity="0.25"
     inkscape:showpageshadow="2"
     inkscape:pageopacity="0.0"
     inkscape:pagecheckerboard="0"
     inkscape:deskcolor="#d1d1d1"
     inkscape:document-units="mm"
     inkscape:zoom="1.0167041"
     inkscape:cx="217.36905"
     inkscape:cy="223.76226"
     inkscape:window-width="2560"
     inkscape:window-height="1009"
     inkscape:window-x="1672"
     inkscape:window-y="-8"
     inkscape:window-maximized="1"
     inkscape:current-layer="layer1" /><defs
     id="defs1" /><g
     inkscape:label="Warstwa 1"
     inkscape:groupmode="layer"
     id="layer1"><path
       d="m 47.74011,54.423022 c 0,-0.945051 0.315067,-1.771979 0.98449,-2.441388 0.669424,-0.629985 1.496337,-0.945051 2.362629,-0.945051 h 8.032937 c 0.905612,0 1.653839,0.315066 2.283868,0.984491 0.590695,0.669423 0.905613,1.457015 0.905613,2.402008 0,0.94505 -0.275629,1.732598 -0.866322,2.402008 -0.590695,0.669423 -1.378138,0.98449 -2.283869,0.98449 H 51.12652 c -0.905613,0 -1.69322,-0.315067 -2.362629,-0.98449 -0.669424,-0.669424 -1.023781,-1.457017 -1.023781,-2.402008 z m 11.261857,27.288349 c 0,-0.905612 0.315067,-1.693205 0.905612,-2.401993 l 5.788447,-5.630943 c 0.590693,-0.629985 1.378137,-0.905612 2.323249,-0.905612 0.94505,0 1.732598,0.315066 2.362627,0.905612 0.629986,0.590694 0.945052,1.338847 0.945052,2.244504 0,0.945052 -0.315066,1.811343 -0.945052,2.520132 l -5.591548,5.591563 c -1.61446,1.260119 -3.22892,1.260119 -4.843396,0 -0.629984,-0.629984 -0.94505,-1.417577 -0.94505,-2.323263 z m 0,-54.497954 c 0,-0.905612 0.315067,-1.693219 0.905612,-2.402008 0.787592,-0.669423 1.614474,-0.984491 2.520146,-0.984491 0.866322,0 1.653841,0.315068 2.323249,0.945052 l 5.630928,5.788446 c 0.629986,0.590695 0.945052,1.378138 0.945052,2.323249 0,0.945052 -0.315066,1.732599 -0.945052,2.362629 -0.629984,0.629984 -1.417577,0.945051 -2.362627,0.945051 -0.945052,0 -1.7326,-0.315067 -2.323249,-0.945051 l -5.749068,-5.630928 c -0.629984,-0.629986 -0.94505,-1.457017 -0.94505,-2.402008 z m 10.041178,27.209605 c 0,-3.662082 0.905612,-7.087885 2.756394,-10.238061 1.850723,-3.150161 4.33149,-5.670308 7.521031,-7.52103 3.189555,-1.850724 6.575995,-2.756396 10.238061,-2.756396 2.756395,0 5.394666,0.551256 7.954177,1.65384 2.520142,1.10251 4.725262,2.559512 6.536622,4.410235 1.85073,1.850722 3.30768,4.016468 4.37085,6.5366 1.06323,2.520146 1.61446,5.197782 1.61446,7.954191 0,3.701446 -0.90561,7.127265 -2.7564,10.277426 -1.85071,3.150176 -4.33148,5.630929 -7.481648,7.481666 -3.150176,1.850724 -6.575979,2.756395 -10.27744,2.756395 -3.701447,0 -7.127265,-0.905612 -10.277426,-2.756395 -3.150177,-1.850737 -5.630929,-4.33149 -7.481666,-7.481666 -1.771965,-3.189541 -2.717015,-6.615359 -2.717015,-10.316805 z m 6.694118,0 c 0,3.858964 1.338847,7.127264 4.055833,9.844279 2.67765,2.71703 5.94595,4.095228 9.804915,4.095228 3.858964,0 7.127264,-1.378139 9.844279,-4.095228 2.71704,-2.717015 4.09523,-5.985315 4.09523,-9.844279 0,-3.780206 -1.37813,-7.009126 -4.09523,-9.726156 -2.717015,-2.67765 -5.985315,-4.016467 -9.844279,-4.016467 -3.819585,0 -7.087886,1.338847 -9.765536,4.016467 -2.756394,2.71703 -4.095212,5.94595 -4.095212,9.726156 z M 86.211572,85.05843 c 0,-0.945051 0.315067,-1.732584 0.98449,-2.362628 0.669424,-0.629985 1.457016,-0.945052 2.362628,-0.945052 0.945052,0 1.77198,0.315067 2.402008,0.945052 0.629985,0.629984 0.945052,1.417577 0.945052,2.362628 v 7.836053 c 0,0.945052 -0.315067,1.771981 -0.98449,2.441389 -0.669424,0.66942 -1.457017,0.984492 -2.362629,0.984492 -0.905613,0 -1.732599,-0.315072 -2.362628,-0.984492 -0.66941,-0.669408 -0.984431,-1.496337 -0.984431,-2.441389 z m 0,-61.034554 v -8.032935 c 0,-0.905613 0.315067,-1.693221 0.98449,-2.36263 0.669424,-0.669425 1.457016,-1.023782 2.402008,-1.023782 0.945051,0 1.69322,0.315067 2.362628,0.984492 0.669425,0.669424 0.984491,1.457017 0.984491,2.362629 v 8.072315 c 0,0.905613 -0.315066,1.653841 -0.984491,2.283869 -0.669424,0.629985 -1.457016,0.905612 -2.362628,0.905612 -0.905612,0 -1.732599,-0.315066 -2.362629,-0.905612 -0.629984,-0.590694 -1.02378,-1.378138 -1.02378,-2.283869 z m 21.736188,51.899063 c 0,-0.905612 0.31506,-1.653839 0.90561,-2.205125 0.59069,-0.629984 1.33884,-0.905612 2.20513,-0.905612 0.94505,0 1.7326,0.315068 2.36262,0.905612 l 5.74908,5.630929 c 0.62999,0.669423 0.94505,1.496336 0.94505,2.402007 0,0.905613 -0.31506,1.69322 -0.94505,2.323249 -1.5751,1.220679 -3.15018,1.220679 -4.72526,0 l -5.59157,-5.591548 c -0.5907,-0.708714 -0.90561,-1.535701 -0.90561,-2.559512 z m 0,-42.999834 c 0,-0.984491 0.31506,-1.771979 0.90561,-2.323249 l 5.59157,-5.788447 c 0.66942,-0.629985 1.45701,-0.945052 2.32325,-0.945052 0.94505,0 1.7326,0.315067 2.36262,0.984491 0.66944,0.669424 0.98449,1.457016 0.98449,2.362629 0,0.98449 -0.31505,1.811358 -0.94505,2.441386 l -5.74907,5.630929 c -0.70886,0.629985 -1.49634,0.945052 -2.36262,0.945052 -0.90561,0 -1.61446,-0.315067 -2.20513,-0.945052 -0.5907,-0.629984 -0.90561,-1.417577 -0.90561,-2.362628 z m 8.89924,21.499917 c 0,-0.945051 0.31508,-1.732599 0.94505,-2.441388 0.63,-0.629985 1.37815,-0.945051 2.2445,-0.945051 h 7.95417 c 0.90561,0 1.69323,0.354357 2.36264,1.023781 0.66942,0.669424 1.02378,1.457016 1.02378,2.362628 0,0.905612 -0.35436,1.693219 -1.02378,2.362628 -0.66942,0.669425 -1.45703,0.984491 -2.36264,0.984491 h -7.95417 c -0.90561,0 -1.69322,-0.315066 -2.28387,-0.984491 -0.5907,-0.669424 -0.90562,-1.417576 -0.90562,-2.362628 z"
       id="path1-8"
       style="stroke-width:3.93771;fill:#4511c8;fill-opacity:1" /><path
       d="m 15.918737,89.102615 c 0,-5.271688 1.650267,-9.947444 4.9508,-14.073112 3.300535,-4.125665 7.472026,-6.784423 12.560359,-7.930446 1.421049,-6.280178 4.675755,-11.414335 9.672398,-15.448333 4.996647,-4.03398 10.772578,-6.050976 17.236118,-6.050976 6.326018,0 11.964436,1.971152 16.915234,5.867619 4.950807,3.896467 8.159649,8.938936 9.626566,15.081602 h 1.512701 c 4.125667,0 7.930438,1.008525 11.414336,2.979645 3.483901,1.971155 6.280201,4.7216 8.297171,8.205491 2.01701,3.483907 3.07134,7.242842 3.07134,11.36851 0,4.03398 -0.96262,7.792935 -2.88796,11.230985 -1.92531,3.43805 -4.58409,6.18849 -7.93044,8.25132 -3.346383,2.06285 -7.059492,3.16302 -11.047628,3.30054 H 37.92226 c -6.142666,-0.27513 -11.322668,-2.61292 -15.585865,-7.01363 -4.263181,-4.35487 -6.417693,-9.626548 -6.417693,-15.769215 z m 7.838759,0 c 0,3.988154 1.375135,7.426202 4.125666,10.360005 2.750445,2.93382 6.096821,4.49238 10.039131,4.72158 h 51.295784 c 3.942309,-0.18331 7.288689,-1.78776 10.039132,-4.72158 2.796271,-2.933803 4.171491,-6.417696 4.171491,-10.360005 0,-4.03398 -1.5127,-7.472044 -4.492382,-10.405847 -2.979641,-2.9338 -6.509392,-4.40071 -10.635059,-4.40071 H 80.96674 c -0.504172,0 -0.779305,-0.274959 -0.779305,-0.825047 l -0.320871,-2.613018 c -0.504179,-4.9508 -2.65876,-9.122294 -6.417714,-12.46867 -3.758929,-3.346378 -8.113796,-5.042487 -13.110438,-5.042487 -4.99665,0 -9.397362,1.696178 -13.064604,5.042487 -3.713112,3.346376 -5.82178,7.51787 -6.2802,12.46867 l -0.366783,2.61293 c 0,0.55009 -0.320871,0.825047 -0.916872,0.825047 h -2.429539 c -3.850622,0.458437 -7.05947,2.108669 -9.626557,4.904958 -2.567088,2.796289 -3.896466,6.096821 -3.896466,9.901601 z"
       id="path2"
       style="fill:#ffffff;stroke-width:4.58407" /><rect
       style="fill:#ffffff;stroke:#ffffff;stroke-width:0.308191"
       id="rect2"
       width="18.263437"
       height="16.975145"
       x="105.93452"
       y="71.592567" /><rect
       style="fill:#ffffff;stroke:#ffffff;stroke-width:0.308191"
       id="rect2-2"
       width="18.263437"
       height="16.975145"
       x="78.451851"
       y="76.674385" /><rect
       style="fill:#ffffff;stroke:#ffffff;stroke-width:0.308191"
       id="rect3"
       width="46.833214"
       height="50.546528"
       x="46.480927"
       y="54.414845" /><path
       d="m 12.92404,92.097312 c 0,-5.271688 1.650267,-9.947444 4.9508,-14.073112 3.300535,-4.125665 7.472026,-6.784423 12.560359,-7.930446 1.421049,-6.280178 4.675755,-11.414335 9.672399,-15.448333 4.996646,-4.03398 10.772577,-6.050976 17.236117,-6.050976 6.326018,0 11.964436,1.971152 16.915234,5.867619 4.950807,3.896467 8.159649,8.938936 9.626566,15.081602 h 1.512701 c 4.125667,0 7.930438,1.008525 11.414332,2.979645 3.483902,1.971155 6.280202,4.7216 8.297172,8.205491 2.01701,3.483907 3.07134,7.242842 3.07134,11.36851 0,4.033979 -0.96261,7.792935 -2.88796,11.230978 -1.92531,3.43807 -4.58409,6.18852 -7.93044,8.25135 -3.34638,2.06284 -7.059489,3.16301 -11.047625,3.30053 H 34.927563 c -6.142666,-0.27513 -11.322668,-2.61292 -15.585865,-7.01363 -4.263181,-4.35488 -6.417693,-9.626563 -6.417693,-15.769228 z m 7.838759,0 c 0,3.988155 1.375135,7.426205 4.125666,10.360008 2.750445,2.93381 6.096821,4.49239 10.039131,4.7216 H 86.22338 c 3.942309,-0.18331 7.288689,-1.78779 10.039136,-4.7216 2.796266,-2.933803 4.171484,-6.4177 4.171484,-10.360008 0,-4.03398 -1.512698,-7.472044 -4.492379,-10.405847 -2.979641,-2.9338 -6.509392,-4.40071 -10.635059,-4.40071 h -7.334519 c -0.504172,0 -0.779305,-0.274959 -0.779305,-0.825047 L 76.871867,73.85269 c -0.504179,-4.9508 -2.65876,-9.122294 -6.417714,-12.46867 -3.758929,-3.346378 -8.113796,-5.042487 -13.110438,-5.042487 -4.99665,0 -9.397362,1.696178 -13.064604,5.042487 -3.713112,3.346376 -5.82178,7.51787 -6.2802,12.46867 l -0.366783,2.61293 c 0,0.55009 -0.320871,0.825047 -0.916872,0.825047 h -2.429539 c -3.850622,0.458437 -7.05947,2.108669 -9.626557,4.904958 -2.567088,2.796288 -3.896466,6.096821 -3.896466,9.901601 z"
       id="path1"
       style="stroke-width:4.58407;fill:#4511c8;fill-opacity:1" /><g
       id="g3"
       transform="matrix(0.01187143,0,0,0.01187143,37.851772,64.570729)"><path
         class="st0"
         d="M 0,0 H 3618.6 V 3618.6 H 0 Z"
         id="path1-3"
         style="fill:none" /><path
         class="st2"
         d="m 1806.5,1191.9 c 406.2,0 783.6,58.3 1068.1,156.2 342.8,118 553.6,296.9 553.6,458.9 0,168.8 -223.4,358.9 -591.5,480.8 -278.3,92.2 -644.6,140.4 -1030.2,140.4 -395.4,0 -769.7,-45.2 -1051.2,-141.4 C 399.2,2165.1 184.7,1972.6 184.7,1807 c 0,-160.7 201.3,-338.2 539.3,-456 285.6,-99.5 672.3,-159.1 1082.5,-159.1 z"
         id="path2-2"
         style="fill:none;stroke:#1a1a1a" /><path
         class="st2"
         d="m 1271,1501.3 c 202.9,-351.9 442,-649.7 669,-847.2 273.5,-238 533.8,-331.2 674.1,-250.3 146.2,84.3 199.3,372.8 121,752.7 -59.2,287.2 -200.4,628.5 -393.1,962.6 -197.5,342.5 -423.7,644.2 -647.6,840 -283.3,247.7 -557.3,337.3 -700.7,254.6 -139.2,-80.3 -192.4,-343.3 -125.7,-695 56.4,-297.4 198,-662.1 403,-1017.4 z"
         id="path3"
         style="stroke:#1a1a1a" /><path
         class="st2"
         d="M 1271.5,2119.8 C 1068,1768.2 929.4,1412.4 871.6,1117.1 802,761.3 851.2,489.2 991.4,408.1 c 146.1,-84.6 422.5,13.5 712.5,271 219.3,194.7 444.4,487.5 637.6,821.3 198.1,342.2 346.6,688.8 404.3,980.5 73.1,369.2 13.9,651.3 -129.4,734.2 -139.1,80.5 -393.5,-4.7 -664.9,-238.2 -229.2,-197.3 -474.5,-502.1 -680,-857.1 z"
         id="path4"
         style="stroke:#333333" /><circle
         class="st1"
         cx="1806.5"
         cy="1807.1"
         r="302.60001"
         id="circle1"
         transform="translate(6.9096742e-5,8.7010709e-5)"
         style="fill:#333333" /></g></g><style
     id="style1">.st0{fill:#222}.st1{fill:#00d8ff}.st2{fill:none;stroke:#00d8ff;stroke-width:144.7456;stroke-miterlimit:10}</style></svg>
